<svg width="20" height="20" viewBox="0 0 20 20" fill="none" xmlns="http://www.w3.org/2000/svg">
<g clip-path="url(#clip0)">
<path d="M16.5408 2.35498H13.8705V0.61971C13.8705 0.270424 13.5887 0 13.2395 0C13.2056 0 13.183 0.0113139 13.1719 0.0226021C13.1606 0.0113139 13.138 0 13.1267 0H6.85067H6.80572H6.76052C6.41126 0 6.14084 0.270424 6.14084 0.61971V2.355H3.45917C2.69285 2.355 2.09574 2.95211 2.09574 3.71844V4.71001V5.9494H3.27887V18.6479C3.27887 19.4142 3.86469 20 4.63102 20H15.369C16.1353 20 16.7324 19.4142 16.7324 18.6479V5.9494H17.9043V4.71001V3.71844C17.9043 2.95211 17.3069 2.35498 16.5408 2.35498ZM7.38023 1.23939H12.6198V2.35498H7.38023V1.23939V1.23939ZM15.4817 18.6479C15.4817 18.727 15.4478 18.7606 15.369 18.7606H4.63102C4.55218 18.7606 4.51829 18.727 4.51829 18.6479V5.94938H15.4817V18.6479V18.6479ZM16.6536 4.70998H3.34642V3.71841C3.34642 3.63955 3.38031 3.59437 3.45915 3.59437H16.5408C16.6197 3.59437 16.6536 3.63955 16.6536 3.71841V4.70998Z" fill="#AA0000"/>
<path d="M13.5212 7.40295H12.2705V17.6563H13.5212V7.40295Z" fill="#AA0000"/>
<path d="M10.6366 7.40295H9.38595V17.6563H10.6366V7.40295Z" fill="#AA0000"/>
<path d="M7.75207 7.40295H6.50138V17.6563H7.75207V7.40295Z" fill="#AA0000"/>
</g>
<defs>
<clipPath id="clip0">
<rect width="20" height="20" fill="white"/>
</clipPath>
</defs>
</svg>
